<?xml version="1.0" encoding="iso-8859-1"?>
<!-- Generator: Adobe Illustrator 16.0.0, SVG Export Plug-In . SVG Version: 6.00 Build 0)  -->
<!DOCTYPE svg PUBLIC "-//W3C//DTD SVG 1.1//EN" "http://www.w3.org/Graphics/SVG/1.1/DTD/svg11.dtd">
<svg version="1.1" id="Capa_1" xmlns="http://www.w3.org/2000/svg" xmlns:xlink="http://www.w3.org/1999/xlink" x="0px" y="0px"
	 width="225.255px" height="225.255px" viewBox="0 0 225.255 225.255" style="enable-background:new 0 0 225.255 225.255;"
	 xml:space="preserve">
<g>
	<g>
		<path d="M110.17,0.008C52.789-0.708-12.765,45.589,13.568,94.932c9.401,17.611,63.313,7.173,76.967,3.236
			c6.36-1.838,12.886-3.546,19.896-3.46c32.084,0.398,57.767,26.746,57.376,58.829c-0.402,32.09-26.74,57.772-58.83,57.376
			c-32.089-0.396-57.771-26.734-57.373-58.829c0.047-3.938,0.508-7.779,1.3-11.485c-11.771,8.264-13.787,27.427-13.787,27.427
			c-8.281-6.608-22.467-11.898-35.252-14.523c16.187,41.482,56.223,71.154,103.489,71.745
			c62.196,0.774,113.247-49.013,114.027-111.202C222.15,51.842,172.358,0.789,110.17,0.008z"/>
	</g>
</g>
<g>
</g>
<g>
</g>
<g>
</g>
<g>
</g>
<g>
</g>
<g>
</g>
<g>
</g>
<g>
</g>
<g>
</g>
<g>
</g>
<g>
</g>
<g>
</g>
<g>
</g>
<g>
</g>
<g>
</g>
</svg>
