<?xml version="1.0" encoding="utf-8"?>
<!-- Generator: Adobe Illustrator 21.1.0, SVG Export Plug-In . SVG Version: 6.00 Build 0)  -->
<svg version="1.1" xmlns="http://www.w3.org/2000/svg" xmlns:xlink="http://www.w3.org/1999/xlink" x="0px" y="0px"
	 viewBox="0 0 424 424" style="enable-background:new 0 0 424 424;" xml:space="preserve">
<style type="text/css">
	.st0{fill:#F71919;}
	.st1{fill:#E70004;}
	.st2{fill:#F9F7F7;}
</style>
<g id="Layer_1">
	<circle class="st0" cx="212" cy="212" r="212"/>
	<g>
		<path class="st1" d="M351.5,220.5c-11,0-20-9-20-20s9-20,20-20s20,9,20,20S362.5,220.5,351.5,220.5z"/>
		<path class="st1" d="M351.5,181c10.8,0,19.5,8.7,19.5,19.5s-8.7,19.5-19.5,19.5s-19.5-8.7-19.5-19.5S340.7,181,351.5,181
			 M351.5,180c-11.3,0-20.5,9.2-20.5,20.5s9.2,20.5,20.5,20.5s20.5-9.2,20.5-20.5S362.8,180,351.5,180L351.5,180z"/>
	</g>
</g>
<g id="Layer_2">
	<g>
		<ellipse class="st2" cx="243" cy="212" rx="175" ry="72"/>
	</g>
	<g>
		<polygon class="st2" points="17.5,207.4 18.2,133.4 87,171 155.8,208.6 86.3,245 16.8,281.4 		"/>
	</g>
	<circle class="st0" cx="348" cy="199" r="24"/>
	<polygon class="st0" points="8.4,227.1 8.7,206.9 9.1,186.8 26.3,197.1 43.6,207.5 26,217.3 	"/>
</g>
<g id="Layer_3">
</g>
</svg>
