<?xml version="1.0" encoding="utf-8"?>
<!-- Generator: Adobe Illustrator 21.1.0, SVG Export Plug-In . SVG Version: 6.00 Build 0)  -->
<svg version="1.1" id="Capa_1" xmlns="http://www.w3.org/2000/svg" xmlns:xlink="http://www.w3.org/1999/xlink" x="0px" y="0px"
	 viewBox="0 0 225.3 225.3" style="enable-background:new 0 0 225.3 225.3;" xml:space="preserve">
<style type="text/css">
	.st0{fill:#E10015;}
	.st1{fill:#FFFFFF;}
</style>
<g>
	<g>
		<path class="st0" d="M110.2,0C52.8-0.7-12.8,45.6,13.6,94.9c9.4,17.6,63.3,7.2,77,3.2c6.4-1.8,12.9-3.5,19.9-3.5
			c32.1,0.4,57.8,26.7,57.4,58.8c-0.4,32.1-26.7,57.8-58.8,57.4c-32.1-0.4-57.8-26.7-57.4-58.8c0-3.9,0.5-7.8,1.3-11.5
			C41.1,148.9,39.1,168,39.1,168c-8.3-6.6-22.5-11.9-35.3-14.5c16.2,41.5,56.2,71.2,103.5,71.7c62.2,0.8,113.2-49,114-111.2
			C222.1,51.8,172.4,0.8,110.2,0z"/>
	</g>
</g>
<circle class="st1" cx="43.6" cy="57" r="17.8"/>
</svg>
